<svg id="visual" viewBox="0 0 900 600" width="900" height="600" xmlns="http://www.w3.org/2000/svg" xmlns:xlink="http://www.w3.org/1999/xlink" version="1.1"><rect x="0" y="0" width="900" height="600" fill="#041A35"></rect><defs><linearGradient id="grad1_0" x1="33.3%" y1="0%" x2="100%" y2="100%"><stop offset="20%" stop-color="#041a35" stop-opacity="1"></stop><stop offset="80%" stop-color="#041a35" stop-opacity="1"></stop></linearGradient></defs><defs><linearGradient id="grad2_0" x1="0%" y1="0%" x2="66.7%" y2="100%"><stop offset="20%" stop-color="#041a35" stop-opacity="1"></stop><stop offset="80%" stop-color="#041a35" stop-opacity="1"></stop></linearGradient></defs><g transform="translate(900, 0)"><path d="M0 486.7C-71.6 488.1 -143.3 489.5 -186.3 449.7C-229.3 409.9 -243.6 329 -279.3 279.3C-315 229.6 -372.1 211.3 -410.2 169.9C-448.3 128.6 -467.5 64.3 -486.7 0L0 0Z" fill="#297EA6"></path></g><g transform="translate(0, 600)"><path d="M0 -486.7C69.7 -486.1 139.4 -485.5 186.3 -449.7C233.1 -413.9 257.1 -342.8 293.4 -293.4C329.8 -244.1 378.7 -216.4 413 -171.1C447.3 -125.8 467 -62.9 486.7 0L0 0Z" fill="#297EA6"></path></g></svg>